<?xml version="1.0" encoding="UTF-8"?>
<!DOCTYPE svg PUBLIC "-//W3C//DTD SVG 1.1//EN" "http://www.w3.org/Graphics/SVG/1.1/DTD/svg11.dtd">
<!-- Creator: CorelDRAW X7 -->
<svg xmlns="http://www.w3.org/2000/svg" xml:space="preserve" width="91.4398mm" height="91.4398mm" version="1.1" style="shape-rendering:geometricPrecision; text-rendering:geometricPrecision; image-rendering:optimizeQuality; fill-rule:evenodd; clip-rule:evenodd"
viewBox="0 0 9144 9144"
 xmlns:xlink="http://www.w3.org/1999/xlink">
 <defs>
  <style type="text/css">
   <![CDATA[
    .fil0 {fill:#FEFEFE;fill-rule:nonzero}
   ]]>
  </style>
 </defs>
 <g id="Layer_x0020_1">
  <metadata id="CorelCorpID_0Corel-Layer"/>
  <path class="fil0" d="M8213 8292c185,183 185,482 2,666 -184,185 -482,186 -667,2l-936 -931c-588,378 -1289,597 -2040,597 -752,0 -1452,-219 -2041,-597l-936 931c-184,184 -483,183 -666,-2 -184,-184 -183,-483 1,-666l875 -870c-630,-676 -1015,-1582 -1015,-2577 0,-1045 423,-1990 1108,-2675 684,-684 1630,-1107 2674,-1107 1044,0 1989,423 2674,1107 684,685 1107,1630 1107,2675 0,995 -385,1901 -1014,2577l874 870zm-4114 -4866c0,-261 212,-472 473,-472 261,0 473,211 473,472l0 1222 539 531c185,183 188,481 5,667 -182,185 -481,188 -666,5l-657 -646c-102,-87 -167,-216 -167,-360l0 -1419zm-1678 -2974c184,185 184,484 0,669 -185,184 -484,184 -669,0 -45,-46 -97,-81 -153,-104 -55,-23 -117,-35 -181,-35 -64,0 -125,12 -181,35 -58,24 -110,59 -153,102l-1 1 1 1c-45,45 -80,97 -103,153 -23,56 -36,117 -36,181 0,65 13,127 36,183 22,54 57,105 103,152 185,184 185,483 0,668 -185,185 -484,185 -668,0 -132,-131 -235,-289 -307,-462 -71,-172 -109,-356 -109,-541 0,-187 38,-371 109,-543 71,-171 175,-328 307,-460l1 1c133,-133 289,-237 458,-307 172,-72 357,-109 543,-109 187,0 371,37 543,109 171,71 328,174 460,306zm6307 2005c-184,185 -483,185 -668,0 -185,-185 -185,-484 0,-668 45,-46 80,-98 104,-154 22,-55 35,-117 35,-181 0,-64 -13,-125 -36,-181 -23,-57 -58,-110 -101,-153l-1 -1 -1 1c-46,-45 -98,-80 -154,-103 -55,-23 -116,-35 -180,-35 -64,0 -126,12 -181,35 -58,24 -110,58 -153,101 -184,185 -482,186 -667,2 -185,-183 -185,-482 -2,-666 134,-134 290,-239 460,-309 172,-71 356,-109 543,-109 186,0 371,38 542,109 172,71 328,175 460,307l-1 1c134,133 238,289 308,458 71,172 109,357 109,543 0,187 -38,371 -109,543 -71,171 -175,328 -307,460zm-2151 4393c514,-513 831,-1222 831,-2005 0,-784 -317,-1493 -831,-2006 -513,-514 -1222,-831 -2005,-831 -783,0 -1493,317 -2006,831 -513,513 -831,1222 -831,2006 0,783 318,1492 831,2005 514,513 1223,830 2006,830 783,0 1492,-317 2005,-830z"/>
 </g>
</svg>
