<?xml version="1.0" encoding="UTF-8"?>
<!DOCTYPE svg PUBLIC "-//W3C//DTD SVG 1.1//EN" "http://www.w3.org/Graphics/SVG/1.1/DTD/svg11.dtd">
<!-- Creator: CorelDRAW X7 -->
<svg xmlns="http://www.w3.org/2000/svg" xml:space="preserve" width="91.4398mm" height="91.4398mm" version="1.1" style="shape-rendering:geometricPrecision; text-rendering:geometricPrecision; image-rendering:optimizeQuality; fill-rule:evenodd; clip-rule:evenodd"
viewBox="0 0 9144 9144"
 xmlns:xlink="http://www.w3.org/1999/xlink">
 <defs>
  <style type="text/css">
   <![CDATA[
    .fil0 {fill:#FEFEFE;fill-rule:nonzero}
   ]]>
  </style>
 </defs>
 <g id="Layer_x0020_1">
  <metadata id="CorelCorpID_0Corel-Layer"/>
  <path class="fil0" d="M4115 2286c0,-252 205,-457 457,-457 253,0 457,205 457,457l0 1480 452 -271c216,-129 496,-59 625,157 130,216 59,496 -157,626l-1111 666c-75,54 -167,85 -266,85 -252,0 -457,-204 -457,-457l0 -2286zm5029 2286c0,1263 -511,2406 -1339,3233 -827,828 -1970,1339 -3233,1339 -1262,0 -2405,-511 -3232,-1339 -828,-827 -1340,-1970 -1340,-3233 0,-1262 512,-2405 1339,-3233 828,-827 1971,-1339 3233,-1339 1263,0 2406,512 3233,1340 828,827 1339,1970 1339,3232zm-1985 2587c662,-662 1071,-1577 1071,-2587 0,-1010 -409,-1924 -1071,-2586 -662,-662 -1577,-1071 -2587,-1071 -1010,0 -1924,409 -2586,1071 -662,662 -1071,1576 -1071,2586 0,1010 409,1925 1071,2587 662,662 1576,1071 2586,1071 1010,0 1925,-409 2587,-1071z"/>
 </g>
</svg>
