<?xml version="1.0" encoding="UTF-8"?>
<!DOCTYPE svg PUBLIC "-//W3C//DTD SVG 1.1//EN" "http://www.w3.org/Graphics/SVG/1.1/DTD/svg11.dtd">
<!-- Creator: CorelDRAW X7 -->
<svg xmlns="http://www.w3.org/2000/svg" xml:space="preserve" width="91.4398mm" height="91.4398mm" version="1.1" style="shape-rendering:geometricPrecision; text-rendering:geometricPrecision; image-rendering:optimizeQuality; fill-rule:evenodd; clip-rule:evenodd"
viewBox="0 0 9144 9144"
 xmlns:xlink="http://www.w3.org/1999/xlink">
 <defs>
  <style type="text/css">
   <![CDATA[
    .fil0 {fill:#FEFEFE;fill-rule:nonzero}
   ]]>
  </style>
 </defs>
 <g id="Layer_x0020_1">
  <metadata id="CorelCorpID_0Corel-Layer"/>
  <path class="fil0" d="M5029 5487c0,252 -205,457 -457,457 -253,0 -457,-205 -457,-457l0 -1372c0,-252 204,-457 457,-457 252,0 457,205 457,457l0 1372zm-457 -3201c-821,0 -1564,333 -2102,871 -537,537 -870,1280 -870,2101 0,821 333,1564 870,2102 538,537 1281,870 2102,870 821,0 1564,-333 2101,-870 538,-538 871,-1281 871,-2102 0,-381 -70,-742 -198,-1072 -130,-337 -321,-645 -559,-911l-2 -2c-11,-11 -21,-22 -31,-34 -274,-296 -607,-536 -981,-701 -366,-162 -773,-252 -1201,-252zm-2748 224c602,-602 1400,-1007 2291,-1112l0 -483 -915 0c-252,0 -457,-205 -457,-457 0,-253 205,-458 457,-458l1372 0 1372 0c252,0 457,205 457,458 0,252 -205,457 -457,457l-915 0 0 483c391,46 765,151 1112,304 351,155 675,361 962,607l575 -575c178,-178 468,-178 646,0 179,179 179,468 0,647l-602 602c193,267 353,561 474,874 170,438 262,910 262,1401 0,1073 -435,2045 -1138,2748 -703,703 -1675,1138 -2748,1138 -1073,0 -2045,-435 -2748,-1138 -703,-703 -1138,-1675 -1138,-2748 0,-1073 435,-2045 1138,-2748z"/>
 </g>
</svg>
