<?xml version="1.0" encoding="UTF-8"?>
<!DOCTYPE svg PUBLIC "-//W3C//DTD SVG 1.1//EN" "http://www.w3.org/Graphics/SVG/1.1/DTD/svg11.dtd">
<!-- Creator: CorelDRAW X7 -->
<svg xmlns="http://www.w3.org/2000/svg" xml:space="preserve" width="91.4398mm" height="91.4398mm" version="1.1" style="shape-rendering:geometricPrecision; text-rendering:geometricPrecision; image-rendering:optimizeQuality; fill-rule:evenodd; clip-rule:evenodd"
viewBox="0 0 9144 9144"
 xmlns:xlink="http://www.w3.org/1999/xlink">
 <defs>
  <style type="text/css">
   <![CDATA[
    .fil0 {fill:#FEFEFE;fill-rule:nonzero}
   ]]>
  </style>
 </defs>
 <g id="Layer_x0020_1">
  <metadata id="CorelCorpID_0Corel-Layer"/>
  <path class="fil0" d="M9144 4572c0,1263 -511,2406 -1339,3233 -827,828 -1970,1339 -3233,1339 -1262,0 -2405,-511 -3232,-1339 -828,-827 -1340,-1970 -1340,-3233 0,-1262 512,-2405 1339,-3233 828,-827 1971,-1339 3233,-1339 1263,0 2406,512 3233,1340 828,827 1339,1970 1339,3232zm-2384 2188c560,-560 906,-1333 906,-2188 0,-854 -346,-1627 -906,-2187 -560,-560 -1333,-906 -2188,-906 -854,0 -1627,346 -2187,906 -560,560 -906,1333 -906,2187 0,855 346,1628 906,2188 560,560 1333,906 2187,906 855,0 1628,-346 2188,-906z"/>
  <path class="fil0" d="M3833 2443c0,-408 331,-739 739,-739 409,0 740,331 740,739l0 2129c0,409 -331,740 -740,740 -408,0 -739,-331 -739,-740l0 -2129z"/>
  <path class="fil0" d="M8925 643c289,287 290,753 3,1042 -287,289 -754,290 -1043,3l-426 -425c-288,-288 -290,-754 -2,-1043 287,-289 753,-290 1042,-3l426 426z"/>
 </g>
</svg>
